<?xml version="1.0" encoding="utf-8"?>
<!-- Generator: Adobe Illustrator 16.0.0, SVG Export Plug-In . SVG Version: 6.00 Build 0)  -->
<!DOCTYPE svg PUBLIC "-//W3C//DTD SVG 1.1//EN" "http://www.w3.org/Graphics/SVG/1.1/DTD/svg11.dtd">
<svg version="1.1" id="Layer_1" xmlns="http://www.w3.org/2000/svg" xmlns:xlink="http://www.w3.org/1999/xlink" x="0px" y="0px"
	 width="237.742px" height="46.129px" viewBox="0 0 237.742 46.129" enable-background="new 0 0 237.742 46.129"
	 xml:space="preserve">
<polygon fill="#EC1E24" points="59.945,8.692 53.874,8.692 51.724,2.272 49.777,8.692 43.357,8.692 48.673,12.323 46.843,18.337 
	51.724,14.677 57.069,18.25 55.093,12.323 "/>
<g>
	<path fill="#FF0000" d="M34.119,14.175l-4.038,3.398l1.017-5.142l-4.591-2.528c1.889-0.348,3.545-0.581,5.026-0.784l1.162-5.113
		L35.107,8.8c2.789-0.203,4.212-0.058,4.212-0.058c-1.336,1.22-2.731,3.109-2.731,3.109l2.586,4.939L34.119,14.175z M21.017,16.237
		l-3.109,3.834l-0.145-4.706c-2.034-0.465-4.271-1.046-4.271-1.046c1.308-0.697,2.789-1.307,4.242-1.83l-0.087-4.387
		c0,0,1.336,1.511,2.934,3.37c2.527-0.813,4.445-1.278,4.445-1.278c-0.639,1.22-1.598,2.527-2.441,3.602
		c1.308,1.54,2.528,3.021,3.138,3.893L21.017,16.237z M18.518,37.444l0.988,2.18l-2.034-1.307L15.7,39.739l0.523-2.266
		c-0.813-0.436-1.772-1.016-2.004-1.336c0,0,0.871,0.059,2.324,0l0.465-2.092l0.9,2.006c0.755-0.088,1.598-0.174,2.499-0.32
		C20.407,35.731,19.506,36.661,18.518,37.444 M9.832,21.438c-0.959,2.499-1.801,4.649-1.801,4.649
		c-0.32-1.424-0.523-2.964-0.668-4.476c-2.383,0.32-3.283,0.844-3.283,0.844c0.639-1.25,1.83-2.528,3.079-3.661
		c-0.116-2.267-0.116-3.951-0.116-3.951c0.639,0.552,1.452,1.336,2.266,2.179c1.714-1.277,3.138-2.121,3.138-2.121
		c-0.407,0.872-0.988,2.267-1.598,3.748c1.365,1.481,2.469,2.731,2.469,2.731C11.982,21.351,10.849,21.409,9.832,21.438
		 M11.43,39.769c-0.756-0.521-2.15-2.119-2.15-2.119l-1.511,0.174c0.029-0.379,0.116-0.9,0.233-1.453
		c-0.552-0.58-1.25-1.451-1.889-2.584c0,0,0.785,0.639,2.237,1.248c0.291-0.988,0.552-1.771,0.552-1.771
		c0.349,0.465,0.756,1.336,1.104,2.295c0.872,0.232,1.888,0.377,3.022,0.406c0,0-1.104,0.812-2.412,1.25
		C11.081,38.579,11.43,39.769,11.43,39.769 M23.399,1.247c-12.027,0-21.818,9.79-21.818,21.818c0,0.495,0.058,0.987,0.087,1.452
		c0.117,0.814,0.349,1.773,0.756,2.412c0,0,0.813-3.109,1.249-3.398c-0.116,0.059,0.349,3.98,0.349,3.98l2.788,1.336l-2.469,0.93
		c0,0-0.523,0.9-0.116,3.225c0,0,0.058,0.377,0.378,1.074c3.776,6.479,10.778,10.807,18.796,10.807
		c12.056,0,21.847-9.76,21.847-21.817C45.246,11.037,35.455,1.247,23.399,1.247"/>
	<path fill="#FF0000" d="M78.713,36.138c-4.648,0-8.396-5.781-8.396-12.928c0-7.147,3.748-12.957,8.396-12.957
		c4.619,0,8.367,5.81,8.367,12.957C87.08,30.356,83.332,36.138,78.713,36.138 M78.713,6.302c-10.517,0-19.058,7.553-19.058,16.908
		c0,9.326,8.541,16.879,19.058,16.879s19.029-7.553,19.029-16.879C97.742,13.854,89.23,6.302,78.713,6.302"/>
	<path fill="#FF0000" d="M166.797,36.138c-4.619,0-8.367-5.781-8.367-12.928c0-7.147,3.748-12.957,8.367-12.957
		c4.618,0,8.366,5.81,8.366,12.957C175.164,30.356,171.416,36.138,166.797,36.138 M166.797,6.302
		c-10.518,0-19.059,7.553-19.059,16.908c0,9.326,8.541,16.879,19.059,16.879c10.517,0,19.058-7.553,19.058-16.879
		C185.855,13.854,177.314,6.302,166.797,6.302"/>
	<path fill="#FF0000" d="M139.866,6.244c-2.876,0-5.199,2.353-5.199,5.258v27.484h10.371V11.501
		C145.038,8.597,142.713,6.244,139.866,6.244"/>
	<path fill="#FF0000" d="M131.005,16.383c0.232-9.384-13.48-9.355-13.48-9.355H105.73c-2.702,0.32-4.706,2.354-4.706,5.259V39.13
		h9.906V11.764c0-1.017,0.901-0.814,0.901-0.814h2.179c7.292,0.233,7.176,5.898,7.176,5.898c0.116,5.781-6.159,5.896-6.159,5.896
		h-1.831c-1.83,0.117-0.581,1.628-0.581,1.628l-0.029,0.262l7.524,14.496h10.953l-8.773-14.031
		C132.081,24.11,131.005,16.383,131.005,16.383"/>
	<path fill="#FF0000" d="M214.877,6.65c-1.424,0-2.586,1.191-2.586,2.615v13.829L201.978,9.439c0,0-1.598-3.37-7.437-2.673
		c0,0-5.491,0.698-5.578,7.989v24.23h5.345v-23.91l17.606,23.91h5.549V9.265C217.463,7.841,216.3,6.65,214.877,6.65"/>
	<path fill="#FF0000" d="M230.042,13.448c-0.059-0.087-0.088-0.174-0.117-0.29c-0.058-0.146-0.087-0.349-0.087-0.64l-0.028-1.016
		c-0.029-0.465-0.087-0.785-0.262-0.959c-0.146-0.203-0.349-0.349-0.64-0.494c0.32-0.174,0.582-0.407,0.756-0.697
		c0.203-0.291,0.29-0.668,0.29-1.104c0-0.901-0.348-1.482-1.016-1.801c-0.378-0.174-0.814-0.262-1.396-0.262h-3.312
		c0.755-0.581,1.685-0.929,2.702-0.929c2.557,0,4.618,2.091,4.618,4.706C231.552,11.357,230.972,12.577,230.042,13.448
		 M225.219,9.671V7.086h2.354c0.349,0,0.61,0.058,0.812,0.145c0.35,0.203,0.554,0.581,0.554,1.104c0,0.523-0.146,0.843-0.407,1.046
		c-0.262,0.203-0.61,0.29-1.075,0.29H225.219z M224.29,13.797h0.93v-3.283h2.208c0.379,0,0.668,0.058,0.871,0.145
		c0.32,0.174,0.465,0.523,0.494,1.017l0.087,1.278c0,0.291,0,0.494,0.029,0.581c0.03,0.117,0.059,0.204,0.088,0.262h0.639
		c-0.756,0.553-1.685,0.9-2.701,0.9C225.946,14.697,225.045,14.35,224.29,13.797 M222.343,9.962c0-1.54,0.756-2.905,1.859-3.777
		v7.554C223.099,12.867,222.343,11.502,222.343,9.962 M226.934,4.326c-3.021,0-5.491,2.527-5.491,5.636
		c0,3.108,2.47,5.636,5.491,5.636c3.05,0,5.52-2.528,5.52-5.636C232.454,6.853,229.984,4.326,226.934,4.326"/>
</g>
</svg>
